<svg xmlns="http://www.w3.org/2000/svg" viewBox="0 0 512 512">
	<circle cx="254" cy="254" r="254" fill="#324a5e"/>
	<path d="M92.7 450.2c43.9 36.1 100 57.8 161.3 57.8s117.4-21.7 161.3-57.8H92.7z" fill="#2b3b4e"/>
	<path fill="#e6e9ee" d="M314.4 449.1H127.8l29.6-270.9h127.4z"/>
	<path fill="#ced5e0" d="M277.8 449.1H164.4L191 178.2h60.1z"/>
	<path fill="#ffffff" d="M288.1 178.2h-134c-4 0-7.2-3.2-7.2-7.2s3.2-7.2 7.2-7.2h134.1c4 0 7.2 3.2 7.2 7.2-.1 4-3.3 7.2-7.3 7.2z"/>
	<path fill="#ff7058" d="M172.5 101.2h97.2v62.6h-97.2z"/>
	<path fill="#f1543f" d="M196.3 101.2h49.6v62.6h-49.6z"/>
	<path fill="#ffffff" d="M276.7 101.2H165.5c-2.6 0-4.7-2.1-4.7-4.7s2.1-4.7 4.7-4.7h111.2c2.6 0 4.7 2.1 4.7 4.7s-2.1 4.7-4.7 4.7z"/>
	<path fill="#ff7058" d="M269.7 91.7h-97.2l48.6-32.8z"/>
	<path fill="#f1543f" d="M245.9 91.7h-49.6l24.8-32.8z"/>
	<g fill="#acb3ba">
		<path d="M209.7 210.7h22.8v35.4h-22.8zM209.7 270h22.8v35.4h-22.8zM209.7 329.4h22.8v35.4h-22.8zM209.7 388.7h22.8v35.4h-22.8z"/>
	</g>
	<path fill="#ffd05b" d="M269.7 154.9l237.5 79.5c-5.3-69.6-38.7-131.3-88.8-174l-148.6 49.7v44.8h-.1z"/>
</svg>